<svg id="svg" version="1.1" xmlns="http://www.w3.org/2000/svg" xmlns:xlink="http://www.w3.org/1999/xlink" width="400" height="400" viewBox="0, 0, 400,400"><g id="svgg"><path id="path0" d="M183.247 69.257 C 181.402 69.450,178.432 70.050,176.647 70.590 C 174.861 71.130,171.690 71.762,169.600 71.995 C 166.960 72.289,165.195 72.728,163.818 73.432 C 162.729 73.990,160.474 74.684,158.808 74.975 C 156.805 75.325,155.136 75.912,153.881 76.708 C 152.837 77.370,151.200 78.029,150.243 78.173 C 149.287 78.316,147.715 78.934,146.750 79.546 C 145.785 80.157,144.187 80.934,143.198 81.272 C 142.209 81.609,140.700 82.361,139.845 82.942 C 138.990 83.523,137.615 84.181,136.789 84.403 C 135.963 84.625,134.773 85.323,134.144 85.953 C 133.515 86.583,132.326 87.315,131.501 87.580 C 130.677 87.845,129.265 88.677,128.363 89.431 C 127.462 90.184,126.562 90.800,126.363 90.800 C 126.165 90.800,125.327 91.405,124.501 92.145 C 123.676 92.886,122.447 93.774,121.770 94.119 C 121.094 94.465,119.950 95.300,119.228 95.974 C 118.506 96.648,117.773 97.200,117.598 97.200 C 116.976 97.200,100.000 113.798,100.000 114.406 C 100.000 114.606,99.325 115.484,98.500 116.358 C 96.408 118.575,95.034 120.350,93.971 122.209 C 93.470 123.084,92.552 124.316,91.930 124.947 C 91.309 125.579,90.800 126.337,90.800 126.634 C 90.800 126.930,90.284 127.763,89.654 128.486 C 89.023 129.209,88.029 130.818,87.443 132.061 C 86.858 133.305,86.132 134.417,85.831 134.533 C 85.530 134.648,84.975 135.701,84.597 136.871 C 84.220 138.042,83.404 139.648,82.785 140.440 C 82.166 141.232,81.536 142.536,81.385 143.338 C 81.235 144.140,80.607 145.562,79.989 146.498 C 79.372 147.434,78.581 149.307,78.232 150.661 C 77.884 152.015,77.073 154.121,76.430 155.342 C 75.766 156.605,75.142 158.563,74.983 159.882 C 74.829 161.157,74.194 163.280,73.573 164.600 C 72.752 166.344,72.272 168.313,71.821 171.800 C 71.479 174.440,70.856 177.685,70.438 179.012 C 68.123 186.350,68.130 216.757,70.449 224.263 C 70.898 225.718,71.592 229.036,71.990 231.637 C 72.459 234.698,73.008 236.843,73.549 237.717 C 74.007 238.459,74.663 240.402,75.006 242.033 C 75.349 243.665,76.062 245.655,76.590 246.455 C 77.119 247.255,77.820 248.937,78.148 250.193 C 78.476 251.448,79.178 253.134,79.709 253.938 C 80.239 254.742,80.979 256.324,81.353 257.453 C 81.727 258.582,82.378 259.818,82.800 260.200 C 83.222 260.582,83.869 261.803,84.238 262.914 C 84.607 264.024,85.397 265.410,85.993 265.993 C 86.590 266.577,87.407 267.914,87.808 268.966 C 88.210 270.018,88.786 270.973,89.088 271.089 C 89.390 271.205,90.070 272.155,90.600 273.200 C 91.130 274.245,91.818 275.198,92.129 275.317 C 92.440 275.437,93.165 276.375,93.739 277.403 C 94.861 279.410,96.220 281.217,98.316 283.486 C 99.039 284.270,99.821 285.265,100.052 285.697 C 101.019 287.504,113.539 300.000,114.383 300.000 C 114.737 300.000,116.005 300.630,117.200 301.400 C 120.252 303.366,125.301 303.485,127.821 301.650 C 128.690 301.018,129.850 300.364,130.400 300.197 C 137.007 298.186,140.259 285.846,135.586 280.523 C 134.934 279.780,134.400 279.001,134.400 278.791 C 134.400 278.581,132.237 276.113,129.594 273.305 C 123.492 266.823,122.556 265.774,120.600 263.226 C 119.720 262.079,118.362 260.389,117.583 259.470 C 116.803 258.552,115.946 257.292,115.678 256.670 C 115.410 256.049,114.671 254.879,114.036 254.070 C 113.401 253.262,112.752 252.150,112.594 251.600 C 112.436 251.050,111.860 250.004,111.314 249.275 C 110.768 248.546,109.903 246.884,109.393 245.583 C 108.883 244.281,108.112 242.717,107.680 242.108 C 107.247 241.498,106.607 239.879,106.257 238.509 C 105.907 237.138,105.183 235.324,104.648 234.476 C 104.037 233.508,103.499 231.771,103.201 229.806 C 102.940 228.085,102.188 225.332,101.530 223.688 C 100.451 220.995,100.298 220.043,99.980 214.050 C 99.786 210.392,99.519 206.500,99.387 205.400 C 98.697 199.680,100.259 181.523,101.760 177.800 C 102.292 176.480,102.932 174.050,103.181 172.400 C 103.431 170.750,104.148 168.320,104.776 167.000 C 105.403 165.680,106.133 163.657,106.397 162.505 C 106.661 161.352,107.227 159.965,107.655 159.422 C 108.082 158.878,108.788 157.397,109.224 156.130 C 109.660 154.863,110.436 153.370,110.948 152.813 C 111.461 152.256,112.191 150.990,112.571 150.000 C 112.951 149.010,113.677 147.750,114.185 147.200 C 114.693 146.650,115.424 145.570,115.810 144.800 C 116.195 144.030,117.026 142.809,117.655 142.086 C 118.285 141.363,118.800 140.604,118.800 140.399 C 118.800 139.915,123.908 133.832,125.940 131.896 C 126.458 131.403,127.178 130.658,127.540 130.240 C 127.903 129.822,128.470 129.234,128.800 128.933 C 129.130 128.632,130.716 127.125,132.325 125.583 C 133.933 124.041,135.943 122.341,136.791 121.806 C 137.639 121.270,138.450 120.643,138.593 120.412 C 138.883 119.942,142.375 117.541,145.036 115.983 C 145.990 115.424,147.188 114.575,147.697 114.097 C 148.206 113.618,149.403 112.952,150.357 112.615 C 151.310 112.279,152.679 111.487,153.398 110.855 C 154.118 110.223,155.391 109.578,156.228 109.421 C 157.065 109.264,158.481 108.641,159.375 108.036 C 160.269 107.432,162.247 106.636,163.770 106.267 C 165.294 105.899,166.824 105.340,167.171 105.026 C 168.114 104.172,169.736 103.647,172.928 103.162 C 174.508 102.922,176.880 102.300,178.200 101.781 C 182.805 99.970,183.826 99.882,200.000 99.893 C 216.438 99.905,216.848 99.946,222.691 102.152 C 223.621 102.503,225.691 102.988,227.291 103.230 C 229.000 103.489,230.930 104.092,231.970 104.693 C 232.944 105.256,234.959 106.029,236.450 106.413 C 237.940 106.796,239.628 107.479,240.202 107.930 C 240.776 108.382,242.180 109.054,243.323 109.424 C 244.465 109.795,245.853 110.519,246.406 111.034 C 246.959 111.548,248.216 112.253,249.200 112.600 C 250.184 112.947,251.441 113.665,251.994 114.194 C 252.547 114.724,253.634 115.422,254.408 115.746 C 255.183 116.069,256.173 116.728,256.608 117.210 C 257.044 117.691,258.030 118.407,258.800 118.800 C 259.570 119.193,260.560 119.912,260.999 120.398 C 261.439 120.884,262.339 121.555,262.999 121.889 C 264.293 122.544,264.439 122.678,270.910 129.113 C 275.794 133.971,277.631 135.966,279.513 138.460 C 280.235 139.417,281.445 141.010,282.201 142.000 C 282.958 142.990,283.962 144.520,284.433 145.400 C 284.903 146.280,285.690 147.450,286.180 148.000 C 286.671 148.550,287.314 149.630,287.609 150.400 C 287.904 151.170,288.645 152.383,289.256 153.095 C 289.867 153.807,290.566 155.157,290.810 156.095 C 291.053 157.033,291.759 158.520,292.376 159.400 C 292.994 160.280,293.629 161.771,293.788 162.714 C 293.946 163.657,294.596 165.404,295.233 166.597 C 295.918 167.881,296.629 170.135,296.975 172.121 C 297.297 173.966,298.041 176.719,298.629 178.238 C 300.924 184.172,300.971 214.546,298.693 220.455 C 298.130 221.916,297.374 224.976,297.012 227.255 C 296.590 229.918,296.019 231.974,295.416 233.005 C 294.900 233.888,294.254 235.746,293.981 237.134 C 293.708 238.523,293.084 240.249,292.594 240.971 C 292.104 241.693,291.381 243.255,290.987 244.442 C 290.594 245.629,289.685 247.454,288.968 248.498 C 288.251 249.542,287.550 250.918,287.410 251.557 C 287.269 252.195,286.782 253.051,286.325 253.459 C 285.869 253.866,285.154 254.992,284.736 255.961 C 284.318 256.929,283.487 258.297,282.888 259.001 C 282.290 259.706,281.487 260.803,281.105 261.441 C 280.018 263.253,278.042 265.701,272.904 271.600 C 269.058 276.016,268.437 275.137,269.130 266.261 C 270.102 253.822,269.342 242.663,267.229 238.332 C 266.553 236.946,265.999 235.629,265.998 235.406 C 265.992 234.278,265.064 231.898,264.247 230.912 C 263.739 230.301,262.999 228.936,262.600 227.880 C 262.202 226.825,261.483 225.651,261.002 225.273 C 260.521 224.894,259.896 224.138,259.614 223.592 C 258.729 221.880,254.276 217.328,251.920 215.726 C 251.106 215.173,250.156 214.288,249.811 213.760 C 249.465 213.232,248.936 212.800,248.636 212.800 C 248.335 212.800,247.150 212.154,246.002 211.364 C 244.853 210.573,242.988 209.606,241.857 209.215 C 240.725 208.823,239.080 208.130,238.200 207.675 C 233.285 205.132,213.309 205.195,208.387 207.769 C 207.356 208.308,205.362 209.045,203.956 209.406 C 202.550 209.767,200.950 210.477,200.400 210.984 C 199.850 211.491,198.525 212.286,197.457 212.750 C 196.388 213.214,194.896 214.135,194.143 214.797 C 193.389 215.459,192.553 216.002,192.286 216.004 C 192.019 216.006,191.375 216.546,190.855 217.204 C 189.816 218.519,188.957 218.695,187.781 217.835 C 187.033 217.288,187.009 216.514,187.004 192.935 L 187.000 168.600 185.911 166.138 C 185.312 164.783,184.702 162.928,184.556 162.016 C 184.410 161.103,183.872 159.781,183.361 159.078 C 182.849 158.375,181.980 156.964,181.430 155.941 C 180.879 154.919,179.837 153.714,179.114 153.264 C 178.391 152.814,177.586 152.096,177.326 151.669 C 177.065 151.242,175.991 150.600,174.940 150.241 C 173.889 149.883,172.392 149.150,171.614 148.613 C 167.732 145.929,149.948 146.168,147.653 148.935 C 147.353 149.298,146.453 149.773,145.653 149.992 C 142.752 150.786,135.387 158.774,134.214 162.400 C 133.822 163.610,133.163 165.162,132.750 165.848 C 132.279 166.631,131.979 167.934,131.947 169.339 C 131.807 175.394,139.938 180.625,143.453 176.741 C 143.863 176.289,144.726 175.645,145.370 175.312 C 146.015 174.978,147.102 174.112,147.786 173.387 C 151.744 169.191,155.307 172.635,156.006 181.333 C 156.218 183.957,156.226 206.551,156.028 236.097 C 155.649 292.438,155.773 296.899,157.804 300.000 C 158.308 300.770,159.010 302.423,159.364 303.673 C 159.718 304.924,160.458 306.483,161.009 307.138 C 161.560 307.793,162.293 309.003,162.638 309.828 C 163.273 311.349,163.744 311.907,168.017 316.200 C 171.083 319.281,173.488 321.276,175.000 321.993 C 175.660 322.306,176.657 322.973,177.215 323.475 C 177.774 323.977,179.096 324.648,180.154 324.966 C 181.212 325.285,182.776 326.029,183.629 326.620 C 184.646 327.325,186.402 327.940,188.732 328.407 C 190.686 328.799,192.810 329.391,193.451 329.723 C 198.115 332.135,222.274 332.193,229.100 329.808 C 230.617 329.278,233.645 328.557,235.829 328.206 C 238.660 327.751,240.211 327.283,241.232 326.577 C 242.020 326.031,243.984 325.310,245.597 324.974 C 247.388 324.600,248.962 323.998,249.641 323.427 C 250.253 322.912,251.709 322.266,252.877 321.992 C 254.044 321.717,255.704 320.982,256.564 320.357 C 257.424 319.733,259.012 318.928,260.093 318.569 C 261.173 318.210,262.147 317.682,262.257 317.395 C 262.367 317.109,263.369 316.482,264.484 316.002 C 265.598 315.523,266.971 314.703,267.534 314.181 C 268.097 313.659,269.107 313.016,269.779 312.753 C 270.450 312.489,271.570 311.741,272.267 311.090 C 272.964 310.439,273.895 309.702,274.334 309.453 C 276.718 308.102,280.939 304.944,283.400 302.670 C 284.940 301.247,286.983 299.389,287.941 298.542 C 288.899 297.694,290.069 296.589,290.541 296.087 C 291.013 295.585,293.335 293.207,295.700 290.803 C 298.065 288.399,300.000 286.308,300.000 286.157 C 300.000 286.006,300.765 285.018,301.700 283.960 C 304.420 280.883,305.548 279.394,306.642 277.436 C 307.207 276.426,307.804 275.600,307.971 275.600 C 308.137 275.600,308.770 274.687,309.377 273.572 C 309.984 272.457,310.716 271.454,311.003 271.343 C 311.291 271.233,311.921 270.211,312.405 269.071 C 312.888 267.932,313.702 266.550,314.214 266.000 C 314.726 265.450,315.521 263.989,315.981 262.754 C 316.440 261.519,317.174 260.186,317.610 259.791 C 318.046 259.396,318.598 258.337,318.835 257.436 C 319.073 256.536,319.782 254.990,320.410 254.000 C 321.039 253.010,321.753 251.305,321.998 250.211 C 322.243 249.117,322.953 247.317,323.575 246.211 C 324.198 245.105,324.829 243.300,324.978 242.200 C 325.127 241.100,325.784 239.073,326.438 237.697 C 327.258 235.971,327.819 233.858,328.245 230.897 C 328.585 228.533,329.287 225.232,329.806 223.560 C 332.266 215.630,332.143 186.750,329.613 178.400 C 329.180 176.970,328.569 173.788,328.255 171.329 C 327.856 168.194,327.360 166.169,326.597 164.556 C 325.998 163.291,325.285 160.970,325.012 159.398 C 324.739 157.826,324.052 155.743,323.484 154.770 C 322.917 153.796,322.198 151.888,321.887 150.529 C 321.565 149.125,320.879 147.534,320.298 146.843 C 319.735 146.175,319.153 144.908,319.005 144.028 C 318.856 143.147,318.208 141.766,317.566 140.957 C 316.923 140.148,316.126 138.574,315.795 137.459 C 315.464 136.343,314.676 134.884,314.044 134.215 C 313.412 133.547,312.687 132.347,312.432 131.548 C 312.178 130.750,311.597 129.760,311.142 129.348 C 310.686 128.937,309.891 127.767,309.375 126.750 C 308.859 125.732,308.166 124.796,307.835 124.669 C 307.504 124.542,306.789 123.563,306.247 122.494 C 305.706 121.425,304.966 120.304,304.605 120.004 C 304.243 119.704,303.675 118.933,303.343 118.290 C 303.011 117.648,302.123 116.581,301.370 115.920 C 300.616 115.258,300.000 114.544,300.000 114.331 C 300.000 113.738,283.040 97.200,282.431 97.200 C 282.273 97.200,281.437 96.596,280.572 95.857 C 279.707 95.119,278.257 94.136,277.349 93.674 C 276.441 93.212,275.595 92.564,275.468 92.233 C 275.341 91.903,274.352 91.184,273.269 90.635 C 272.186 90.086,271.205 89.390,271.089 89.088 C 270.973 88.786,270.006 88.214,268.939 87.818 C 267.873 87.421,266.460 86.601,265.800 85.996 C 265.140 85.390,263.880 84.671,263.000 84.398 C 262.120 84.125,260.797 83.450,260.059 82.899 C 259.322 82.348,257.886 81.647,256.869 81.341 C 255.852 81.035,254.386 80.350,253.610 79.820 C 252.835 79.289,251.030 78.560,249.600 78.200 C 248.170 77.840,246.344 77.096,245.542 76.547 C 244.620 75.916,242.924 75.347,240.924 74.998 C 239.186 74.695,236.871 73.990,235.782 73.432 C 234.405 72.728,232.640 72.289,230.000 71.995 C 227.910 71.762,224.760 71.142,223.000 70.615 C 217.304 68.913,194.117 68.120,183.247 69.257 M224.800 236.411 C 226.010 236.827,227.720 237.354,228.600 237.583 C 229.663 237.859,230.938 238.723,232.400 240.157 C 236.312 243.997,236.858 244.915,238.097 249.742 C 238.726 252.194,239.408 254.830,239.611 255.600 C 240.080 257.374,240.080 266.482,239.611 268.600 C 239.170 270.594,237.732 277.872,237.207 280.767 C 236.991 281.958,236.474 283.308,236.057 283.767 C 235.641 284.225,234.979 285.590,234.586 286.800 C 234.194 288.010,233.316 289.700,232.636 290.556 C 230.671 293.028,226.489 297.200,225.975 297.200 C 225.717 297.200,224.894 297.737,224.145 298.394 C 223.397 299.051,222.384 299.665,221.893 299.759 C 221.402 299.853,219.110 300.307,216.800 300.769 C 211.799 301.768,209.087 301.810,204.000 300.967 C 201.910 300.621,199.158 300.184,197.885 299.997 C 196.176 299.746,195.204 299.335,194.171 298.428 C 193.402 297.753,192.537 297.200,192.249 297.200 C 191.136 297.200,187.951 292.980,186.513 289.600 L 185.068 286.200 185.035 278.400 C 185.005 271.017,185.060 270.418,186.070 267.200 C 186.657 265.330,187.354 262.572,187.620 261.070 C 187.925 259.344,188.441 257.937,189.025 257.244 C 189.532 256.641,190.302 255.213,190.736 254.072 C 191.170 252.930,192.037 251.366,192.662 250.596 C 195.677 246.887,198.150 244.161,198.843 243.784 C 199.263 243.555,199.896 242.955,200.250 242.450 C 200.604 241.945,201.706 241.183,202.698 240.758 C 203.691 240.332,205.018 239.551,205.648 239.021 C 206.299 238.473,207.784 237.863,209.096 237.604 C 210.363 237.354,212.390 236.869,213.600 236.526 C 218.564 235.121,220.972 235.096,224.800 236.411 " stroke="none" fill="#fcfaf8" fill-rule="evenodd"></path><path id="path1" d="M0.000 200.000 L 0.000 400.000 200.000 400.000 L 400.000 400.000 400.000 200.000 L 400.000 0.000 200.000 0.000 L 0.000 0.000 0.000 200.000 M215.431 69.229 C 217.834 69.466,221.240 70.089,223.000 70.615 C 224.760 71.142,227.910 71.762,230.000 71.995 C 232.640 72.289,234.405 72.728,235.782 73.432 C 236.871 73.990,239.186 74.695,240.924 74.998 C 242.924 75.347,244.620 75.916,245.542 76.547 C 246.344 77.096,248.170 77.840,249.600 78.200 C 251.030 78.560,252.835 79.289,253.610 79.820 C 254.386 80.350,255.852 81.035,256.869 81.341 C 257.886 81.647,259.322 82.348,260.059 82.899 C 260.797 83.450,262.120 84.125,263.000 84.398 C 263.880 84.671,265.140 85.390,265.800 85.996 C 266.460 86.601,267.873 87.421,268.939 87.818 C 270.006 88.214,270.973 88.786,271.089 89.088 C 271.205 89.390,272.186 90.086,273.269 90.635 C 274.352 91.184,275.341 91.903,275.468 92.233 C 275.595 92.564,276.441 93.212,277.349 93.674 C 278.257 94.136,279.707 95.119,280.572 95.857 C 281.437 96.596,282.273 97.200,282.431 97.200 C 283.040 97.200,300.000 113.738,300.000 114.331 C 300.000 114.544,300.616 115.258,301.370 115.920 C 302.123 116.581,303.011 117.648,303.343 118.290 C 303.675 118.933,304.243 119.704,304.605 120.004 C 304.966 120.304,305.706 121.425,306.247 122.494 C 306.789 123.563,307.504 124.542,307.835 124.669 C 308.166 124.796,308.859 125.732,309.375 126.750 C 309.891 127.767,310.686 128.937,311.142 129.348 C 311.597 129.760,312.178 130.750,312.432 131.548 C 312.687 132.347,313.412 133.547,314.044 134.215 C 314.676 134.884,315.464 136.343,315.795 137.459 C 316.126 138.574,316.923 140.148,317.566 140.957 C 318.208 141.766,318.856 143.147,319.005 144.028 C 319.153 144.908,319.735 146.175,320.298 146.843 C 320.879 147.534,321.565 149.125,321.887 150.529 C 322.198 151.888,322.917 153.796,323.484 154.770 C 324.052 155.743,324.739 157.826,325.012 159.398 C 325.285 160.970,325.998 163.291,326.597 164.556 C 327.360 166.169,327.856 168.194,328.255 171.329 C 328.569 173.788,329.180 176.970,329.613 178.400 C 332.143 186.750,332.266 215.630,329.806 223.560 C 329.287 225.232,328.585 228.533,328.245 230.897 C 327.819 233.858,327.258 235.971,326.438 237.697 C 325.784 239.073,325.127 241.100,324.978 242.200 C 324.829 243.300,324.198 245.105,323.575 246.211 C 322.953 247.317,322.243 249.117,321.998 250.211 C 321.753 251.305,321.039 253.010,320.410 254.000 C 319.782 254.990,319.073 256.536,318.835 257.436 C 318.598 258.337,318.046 259.396,317.610 259.791 C 317.174 260.186,316.440 261.519,315.981 262.754 C 315.521 263.989,314.726 265.450,314.214 266.000 C 313.702 266.550,312.888 267.932,312.405 269.071 C 311.921 270.211,311.291 271.233,311.003 271.343 C 310.716 271.454,309.984 272.457,309.377 273.572 C 308.770 274.687,308.137 275.600,307.971 275.600 C 307.804 275.600,307.207 276.426,306.642 277.436 C 305.548 279.394,304.420 280.883,301.700 283.960 C 300.765 285.018,300.000 286.006,300.000 286.157 C 300.000 286.308,298.065 288.399,295.700 290.803 C 293.335 293.207,291.013 295.585,290.541 296.087 C 290.069 296.589,288.899 297.694,287.941 298.542 C 286.983 299.389,284.940 301.247,283.400 302.670 C 280.939 304.944,276.718 308.102,274.334 309.453 C 273.895 309.702,272.964 310.439,272.267 311.090 C 271.570 311.741,270.450 312.489,269.779 312.753 C 269.107 313.016,268.097 313.659,267.534 314.181 C 266.971 314.703,265.598 315.523,264.484 316.002 C 263.369 316.482,262.367 317.109,262.257 317.395 C 262.147 317.682,261.173 318.210,260.093 318.569 C 259.012 318.928,257.424 319.733,256.564 320.357 C 255.704 320.982,254.044 321.717,252.877 321.992 C 251.709 322.266,250.253 322.912,249.641 323.427 C 248.962 323.998,247.388 324.600,245.597 324.974 C 243.984 325.310,242.020 326.031,241.232 326.577 C 240.211 327.283,238.660 327.751,235.829 328.206 C 233.645 328.557,230.617 329.278,229.100 329.808 C 222.274 332.193,198.115 332.135,193.451 329.723 C 192.810 329.391,190.686 328.799,188.732 328.407 C 186.402 327.940,184.646 327.325,183.629 326.620 C 182.776 326.029,181.212 325.285,180.154 324.966 C 179.096 324.648,177.774 323.977,177.215 323.475 C 176.657 322.973,175.660 322.306,175.000 321.993 C 173.488 321.276,171.083 319.281,168.017 316.200 C 163.744 311.907,163.273 311.349,162.638 309.828 C 162.293 309.003,161.560 307.793,161.009 307.138 C 160.458 306.483,159.718 304.924,159.364 303.673 C 159.010 302.423,158.308 300.770,157.804 300.000 C 155.773 296.899,155.649 292.438,156.028 236.097 C 156.226 206.551,156.218 183.957,156.006 181.333 C 155.307 172.635,151.744 169.191,147.786 173.387 C 147.102 174.112,146.015 174.978,145.370 175.312 C 144.726 175.645,143.863 176.289,143.453 176.741 C 140.808 179.664,135.952 177.849,132.613 172.690 C 131.652 171.205,131.725 167.551,132.750 165.848 C 133.163 165.162,133.822 163.610,134.214 162.400 C 135.387 158.774,142.752 150.786,145.653 149.992 C 146.453 149.773,147.353 149.298,147.653 148.935 C 149.948 146.168,167.732 145.929,171.614 148.613 C 172.392 149.150,173.889 149.883,174.940 150.241 C 175.991 150.600,177.065 151.242,177.326 151.669 C 177.586 152.096,178.391 152.814,179.114 153.264 C 179.837 153.714,180.879 154.919,181.430 155.941 C 181.980 156.964,182.849 158.375,183.361 159.078 C 183.872 159.781,184.410 161.103,184.556 162.016 C 184.702 162.928,185.312 164.783,185.911 166.138 L 187.000 168.600 187.004 192.935 C 187.009 216.514,187.033 217.288,187.781 217.835 C 188.957 218.695,189.816 218.519,190.855 217.204 C 191.375 216.546,192.019 216.006,192.286 216.004 C 192.553 216.002,193.389 215.459,194.143 214.797 C 194.896 214.135,196.388 213.214,197.457 212.750 C 198.525 212.286,199.850 211.491,200.400 210.984 C 200.950 210.477,202.550 209.767,203.956 209.406 C 205.362 209.045,207.356 208.308,208.387 207.769 C 213.309 205.195,233.285 205.132,238.200 207.675 C 239.080 208.130,240.725 208.823,241.857 209.215 C 242.988 209.606,244.853 210.573,246.002 211.364 C 247.150 212.154,248.335 212.800,248.636 212.800 C 248.936 212.800,249.465 213.232,249.811 213.760 C 250.156 214.288,251.106 215.173,251.920 215.726 C 254.276 217.328,258.729 221.880,259.614 223.592 C 259.896 224.138,260.521 224.894,261.002 225.273 C 261.483 225.651,262.202 226.825,262.600 227.880 C 262.999 228.936,263.739 230.301,264.247 230.912 C 265.064 231.898,265.992 234.278,265.998 235.406 C 265.999 235.629,266.553 236.946,267.229 238.332 C 269.342 242.663,270.102 253.822,269.130 266.261 C 268.437 275.137,269.058 276.016,272.904 271.600 C 278.042 265.701,280.018 263.253,281.105 261.441 C 281.487 260.803,282.290 259.706,282.888 259.001 C 283.487 258.297,284.318 256.929,284.736 255.961 C 285.154 254.992,285.869 253.866,286.325 253.459 C 286.782 253.051,287.269 252.195,287.410 251.557 C 287.550 250.918,288.251 249.542,288.968 248.498 C 289.685 247.454,290.594 245.629,290.987 244.442 C 291.381 243.255,292.104 241.693,292.594 240.971 C 293.084 240.249,293.708 238.523,293.981 237.134 C 294.254 235.746,294.900 233.888,295.416 233.005 C 296.019 231.974,296.590 229.918,297.012 227.255 C 297.374 224.976,298.130 221.916,298.693 220.455 C 300.971 214.546,300.924 184.172,298.629 178.238 C 298.041 176.719,297.297 173.966,296.975 172.121 C 296.629 170.135,295.918 167.881,295.233 166.597 C 294.596 165.404,293.946 163.657,293.788 162.714 C 293.629 161.771,292.994 160.280,292.376 159.400 C 291.759 158.520,291.053 157.033,290.810 156.095 C 290.566 155.157,289.867 153.807,289.256 153.095 C 288.645 152.383,287.904 151.170,287.609 150.400 C 287.314 149.630,286.671 148.550,286.180 148.000 C 285.690 147.450,284.903 146.280,284.433 145.400 C 283.962 144.520,282.958 142.990,282.201 142.000 C 281.445 141.010,280.235 139.417,279.513 138.460 C 277.631 135.966,275.794 133.971,270.910 129.113 C 264.439 122.678,264.293 122.544,262.999 121.889 C 262.339 121.555,261.439 120.884,260.999 120.398 C 260.560 119.912,259.570 119.193,258.800 118.800 C 258.030 118.407,257.044 117.691,256.608 117.210 C 256.173 116.728,255.183 116.069,254.408 115.746 C 253.634 115.422,252.547 114.724,251.994 114.194 C 251.441 113.665,250.184 112.947,249.200 112.600 C 248.216 112.253,246.959 111.548,246.406 111.034 C 245.853 110.519,244.465 109.795,243.323 109.424 C 242.180 109.054,240.776 108.382,240.202 107.930 C 239.628 107.479,237.940 106.796,236.450 106.413 C 234.959 106.029,232.944 105.256,231.970 104.693 C 230.930 104.092,229.000 103.489,227.291 103.230 C 225.691 102.988,223.621 102.503,222.691 102.152 C 216.848 99.946,216.438 99.905,200.000 99.893 C 183.826 99.882,182.805 99.970,178.200 101.781 C 176.880 102.300,174.508 102.922,172.928 103.162 C 169.736 103.647,168.114 104.172,167.171 105.026 C 166.824 105.340,165.294 105.899,163.770 106.267 C 162.247 106.636,160.269 107.432,159.375 108.036 C 158.481 108.641,157.065 109.264,156.228 109.421 C 155.391 109.578,154.118 110.223,153.398 110.855 C 152.679 111.487,151.310 112.279,150.357 112.615 C 149.403 112.952,148.206 113.618,147.697 114.097 C 147.188 114.575,145.990 115.424,145.036 115.983 C 142.375 117.541,138.883 119.942,138.593 120.412 C 138.450 120.643,137.639 121.270,136.791 121.806 C 135.943 122.341,133.933 124.041,132.325 125.583 C 130.716 127.125,129.130 128.632,128.800 128.933 C 128.470 129.234,127.903 129.822,127.540 130.240 C 127.178 130.658,126.458 131.403,125.940 131.896 C 123.908 133.832,118.800 139.915,118.800 140.399 C 118.800 140.604,118.285 141.363,117.655 142.086 C 117.026 142.809,116.195 144.030,115.810 144.800 C 115.424 145.570,114.693 146.650,114.185 147.200 C 113.677 147.750,112.951 149.010,112.571 150.000 C 112.191 150.990,111.461 152.256,110.948 152.813 C 110.436 153.370,109.660 154.863,109.224 156.130 C 108.788 157.397,108.082 158.878,107.655 159.422 C 107.227 159.965,106.661 161.352,106.397 162.505 C 106.133 163.657,105.403 165.680,104.776 167.000 C 104.148 168.320,103.431 170.750,103.181 172.400 C 102.932 174.050,102.292 176.480,101.760 177.800 C 100.259 181.523,98.697 199.680,99.387 205.400 C 99.519 206.500,99.786 210.392,99.980 214.050 C 100.298 220.043,100.451 220.995,101.530 223.688 C 102.188 225.332,102.940 228.085,103.201 229.806 C 103.499 231.771,104.037 233.508,104.648 234.476 C 105.183 235.324,105.907 237.138,106.257 238.509 C 106.607 239.879,107.247 241.498,107.680 242.108 C 108.112 242.717,108.883 244.281,109.393 245.583 C 109.903 246.884,110.768 248.546,111.314 249.275 C 111.860 250.004,112.436 251.050,112.594 251.600 C 112.752 252.150,113.401 253.262,114.036 254.070 C 114.671 254.879,115.410 256.049,115.678 256.670 C 115.946 257.292,116.803 258.552,117.583 259.470 C 118.362 260.389,119.720 262.079,120.600 263.226 C 122.556 265.774,123.492 266.823,129.594 273.305 C 132.237 276.113,134.400 278.581,134.400 278.791 C 134.400 279.001,134.934 279.780,135.586 280.523 C 137.615 282.834,138.515 289.649,137.228 292.954 C 136.278 295.393,132.292 299.621,130.400 300.197 C 129.850 300.364,128.690 301.018,127.821 301.650 C 125.301 303.485,120.252 303.366,117.200 301.400 C 116.005 300.630,114.737 300.000,114.383 300.000 C 113.539 300.000,101.019 287.504,100.052 285.697 C 99.821 285.265,99.039 284.270,98.316 283.486 C 96.220 281.217,94.861 279.410,93.739 277.403 C 93.165 276.375,92.440 275.437,92.129 275.317 C 91.818 275.198,91.130 274.245,90.600 273.200 C 90.070 272.155,89.390 271.205,89.088 271.089 C 88.786 270.973,88.210 270.018,87.808 268.966 C 87.407 267.914,86.590 266.577,85.993 265.993 C 85.397 265.410,84.607 264.024,84.238 262.914 C 83.869 261.803,83.222 260.582,82.800 260.200 C 82.378 259.818,81.727 258.582,81.353 257.453 C 80.979 256.324,80.239 254.742,79.709 253.938 C 79.178 253.134,78.476 251.448,78.148 250.193 C 77.820 248.937,77.119 247.255,76.590 246.455 C 76.062 245.655,75.349 243.665,75.006 242.033 C 74.663 240.402,74.007 238.459,73.549 237.717 C 73.008 236.843,72.459 234.698,71.990 231.637 C 71.592 229.036,70.898 225.718,70.449 224.263 C 68.130 216.757,68.123 186.350,70.438 179.012 C 70.856 177.685,71.479 174.440,71.821 171.800 C 72.272 168.313,72.752 166.344,73.573 164.600 C 74.194 163.280,74.829 161.157,74.983 159.882 C 75.142 158.563,75.766 156.605,76.430 155.342 C 77.073 154.121,77.884 152.015,78.232 150.661 C 78.581 149.307,79.372 147.434,79.989 146.498 C 80.607 145.562,81.235 144.140,81.385 143.338 C 81.536 142.536,82.166 141.232,82.785 140.440 C 83.404 139.648,84.220 138.042,84.597 136.871 C 84.975 135.701,85.530 134.648,85.831 134.533 C 86.132 134.417,86.858 133.305,87.443 132.061 C 88.029 130.818,89.023 129.209,89.654 128.486 C 90.284 127.763,90.800 126.930,90.800 126.634 C 90.800 126.337,91.309 125.579,91.930 124.947 C 92.552 124.316,93.470 123.084,93.971 122.209 C 95.034 120.350,96.408 118.575,98.500 116.358 C 99.325 115.484,100.000 114.606,100.000 114.406 C 100.000 113.798,116.976 97.200,117.598 97.200 C 117.773 97.200,118.506 96.648,119.228 95.974 C 119.950 95.300,121.094 94.465,121.770 94.119 C 122.447 93.774,123.676 92.886,124.501 92.145 C 125.327 91.405,126.165 90.800,126.363 90.800 C 126.562 90.800,127.462 90.184,128.363 89.431 C 129.265 88.677,130.677 87.845,131.501 87.580 C 132.326 87.315,133.515 86.583,134.144 85.953 C 134.773 85.323,135.963 84.625,136.789 84.403 C 137.615 84.181,138.990 83.523,139.845 82.942 C 140.700 82.361,142.209 81.609,143.198 81.272 C 144.187 80.934,145.785 80.157,146.750 79.546 C 147.715 78.934,149.287 78.316,150.243 78.173 C 151.200 78.029,152.837 77.370,153.881 76.708 C 155.136 75.912,156.805 75.325,158.808 74.975 C 160.474 74.684,162.729 73.990,163.818 73.432 C 165.195 72.728,166.960 72.289,169.600 71.995 C 171.690 71.762,174.861 71.130,176.647 70.590 C 182.228 68.901,204.235 68.129,215.431 69.229 M217.800 235.603 C 216.700 235.768,214.810 236.184,213.600 236.526 C 212.390 236.869,210.363 237.354,209.096 237.604 C 207.784 237.863,206.299 238.473,205.648 239.021 C 205.018 239.551,203.691 240.332,202.698 240.758 C 201.706 241.183,200.604 241.945,200.250 242.450 C 199.896 242.955,199.263 243.555,198.843 243.784 C 198.150 244.161,195.677 246.887,192.662 250.596 C 192.037 251.366,191.170 252.930,190.736 254.072 C 190.302 255.213,189.532 256.641,189.025 257.244 C 188.441 257.937,187.925 259.344,187.620 261.070 C 187.354 262.572,186.657 265.330,186.070 267.200 C 185.060 270.418,185.005 271.017,185.035 278.400 L 185.068 286.200 186.513 289.600 C 187.951 292.980,191.136 297.200,192.249 297.200 C 192.537 297.200,193.402 297.753,194.171 298.428 C 195.204 299.335,196.176 299.746,197.885 299.997 C 199.158 300.184,201.910 300.621,204.000 300.967 C 209.087 301.810,211.799 301.768,216.800 300.769 C 219.110 300.307,221.402 299.853,221.893 299.759 C 222.384 299.665,223.397 299.051,224.145 298.394 C 224.894 297.737,225.717 297.200,225.975 297.200 C 226.489 297.200,230.671 293.028,232.636 290.556 C 233.316 289.700,234.194 288.010,234.586 286.800 C 234.979 285.590,235.641 284.225,236.057 283.767 C 236.474 283.308,236.991 281.958,237.207 280.767 C 237.732 277.872,239.170 270.594,239.611 268.600 C 240.080 266.482,240.080 257.374,239.611 255.600 C 239.408 254.830,238.726 252.194,238.097 249.742 C 236.858 244.915,236.312 243.997,232.400 240.157 C 230.938 238.723,229.663 237.859,228.600 237.583 C 227.720 237.354,226.010 236.827,224.800 236.411 C 221.941 235.429,220.253 235.234,217.800 235.603 " stroke="none" fill="#fc6313" fill-rule="evenodd"></path></g></svg>